<svg width="132" height="132" viewBox="0 0 132 132" fill="none" xmlns="http://www.w3.org/2000/svg">
<rect x="48" width="96" height="96" rx="16" transform="rotate(30 48 0)" fill="white" fill-opacity="0.2" stroke="url(#paint0_linear_11_595)"/>
<rect x="52.3923" y="16.3923" width="72" height="72" rx="16" transform="rotate(30 52.3923 16.3923)" fill="white"/>
<path d="M72.8616 50.7397C73.5444 50.8659 74.1794 51.2266 74.6435 51.755L82.3679 60.5008C83.2333 61.478 83.3898 62.8814 82.7584 63.9885L77.2852 73.6092C75.6264 76.5256 72.9402 78.7318 69.7257 79.8197C68.2484 80.318 66.6022 80.5282 64.6924 80.4635L57.9534 80.2432C57.743 80.235 57.5401 80.1764 57.3606 80.0746C57.1812 79.9729 57.0272 79.8276 56.9156 79.652L53.2705 73.9616C52.2363 72.3435 51.5778 70.8197 51.2538 69.3004C50.5436 65.9766 51.0672 62.5383 52.7284 59.6174L58.1973 50.0044C58.8297 48.8958 60.1144 48.3149 61.3957 48.5583L72.8616 50.7397ZM73.2922 64.6756C73.1013 64.0162 72.4094 63.6205 71.7455 63.7939L64.1164 65.7795L63.2305 62.7162C63.0396 62.0569 62.3482 61.6637 61.6829 61.8362C61.0191 62.0097 60.636 62.6831 60.8268 63.3424L62.0562 67.5998C62.152 67.9304 62.3724 68.1932 62.6529 68.3514C62.9327 68.5109 63.2708 68.5667 63.6038 68.4797L72.4344 66.1808C73.0983 66.0074 73.4814 65.334 73.2922 64.6756Z" fill="#07B9AA"/>
<defs>
<linearGradient id="paint0_linear_11_595" x1="48" y1="0" x2="144" y2="96" gradientUnits="userSpaceOnUse">
<stop stop-color="white"/>
<stop offset="1" stop-color="white" stop-opacity="0"/>
</linearGradient>
</defs>
</svg>
