<svg width="36" height="36" viewBox="0 0 36 36" fill="none" xmlns="http://www.w3.org/2000/svg">
<path d="M0 18C0 8.05888 8.05888 0 18 0C27.9411 0 36 8.05888 36 18C36 27.9411 27.9411 36 18 36C8.05888 36 0 27.9411 0 18Z" fill="#0A2463"/>
<path d="M19.7839 16.8397C19.7839 16.0617 19.7974 15.3373 19.8378 14.6667L17.7782 15.0557V15.2435L17.9801 15.2703C18.1282 15.2837 18.2224 15.3373 18.2763 15.4178C18.3301 15.5117 18.3705 15.6459 18.3974 15.8471C18.4244 16.2361 18.4513 17.1214 18.4378 18.5164C18.4378 19.898 18.4244 20.7699 18.3974 21.1053C19.1378 21.2663 19.7166 21.3333 20.1474 21.3333C20.9551 21.3333 21.5877 21.1053 22.0454 20.6358C22.5031 20.1797 22.7454 19.5359 22.7454 18.7445C22.7454 18.114 22.5704 17.5909 22.2204 17.175C21.8704 16.7592 21.4262 16.558 20.9012 16.558C20.5512 16.558 20.1878 16.6519 19.7839 16.8397ZM19.8243 20.9711C19.7974 20.5419 19.7705 19.2542 19.7705 17.1482C19.8916 17.108 20.0532 17.0811 20.2551 17.0811C20.5781 17.0811 20.8339 17.2421 21.0224 17.5775C21.2108 17.9128 21.3051 18.3152 21.3051 18.8249C21.3051 19.4554 21.1974 19.9651 20.982 20.3944C20.7666 20.8102 20.4974 21.0248 20.1608 21.0248C20.0532 20.998 19.9455 20.9846 19.8243 20.9711ZM10.0515 14.8008H4.66699V15.0691L4.94968 15.0959C5.16506 15.1361 5.31313 15.2166 5.40736 15.3373C5.50159 15.4715 5.55543 15.6861 5.56889 15.9812C5.67658 17.4299 5.67658 18.7847 5.56889 20.0322C5.54197 20.3273 5.48813 20.5419 5.40736 20.676C5.31313 20.8102 5.16506 20.8907 4.94968 20.9175L4.66699 20.9577V21.226H8.13999V20.9577L7.77653 20.9309C7.56115 20.9041 7.41308 20.8102 7.31885 20.6895C7.22462 20.5553 7.17078 20.3407 7.15732 20.0456C7.11693 19.509 7.09001 18.892 7.09001 18.2079L7.81692 18.2213C8.20729 18.2347 8.47652 18.5298 8.61113 19.12H8.88035V16.9336H8.61113C8.47652 17.5104 8.22075 17.8055 7.81692 17.8189L7.09001 17.8323C7.09001 16.6251 7.11693 15.7666 7.15732 15.2435H8.22075C8.97458 15.2435 9.48611 15.7263 9.78225 16.6921L10.1053 16.5982L10.0515 14.8008ZM9.4188 18.9322C9.4188 19.6298 9.62072 20.2066 10.0111 20.6626C10.4015 21.1187 10.9803 21.3333 11.7072 21.3333C12.4341 21.3333 13.0264 21.1053 13.4572 20.6358C13.8879 20.1797 14.0898 19.6029 14.0898 18.9054C14.0898 18.2079 13.8879 17.6311 13.4975 17.175C13.1072 16.719 12.5283 16.5043 11.8014 16.5043C11.0745 16.5043 10.4822 16.7324 10.0515 17.2019C9.62072 17.6579 9.4188 18.2347 9.4188 18.9322ZM12.4207 17.4031C12.5822 17.7921 12.6495 18.3018 12.6495 18.9188C12.6495 20.3407 12.3533 21.0382 11.7745 21.0382C11.4784 21.0382 11.2495 20.837 11.088 20.4346C10.9265 20.0322 10.8592 19.5225 10.8592 18.9188C10.8592 17.5104 11.1553 16.8129 11.7341 16.8129C12.0303 16.7995 12.2591 17.0007 12.4207 17.4031ZM23.7954 20.6626C24.2396 21.1053 24.805 21.3333 25.478 21.3333C25.8953 21.3333 26.2588 21.2528 26.5819 21.0785C26.9049 20.9175 27.1607 20.7163 27.3357 20.4748L27.2011 20.3139C26.9049 20.5419 26.5684 20.6492 26.178 20.6492C25.6396 20.6492 25.2223 20.4748 24.9396 20.1127C24.6434 19.7505 24.5088 19.2944 24.5357 18.7042H27.4164C27.4164 18.0604 27.2549 17.5372 26.9184 17.1214C26.5819 16.719 26.1107 16.5178 25.505 16.5178C24.7511 16.5178 24.1723 16.7592 23.755 17.2287C23.3377 17.6982 23.1358 18.275 23.1358 18.9591C23.1358 19.6566 23.3512 20.22 23.7954 20.6626ZM24.7915 17.2958C24.9396 16.9738 25.128 16.8129 25.3838 16.8129C25.7876 16.8129 25.9896 17.3226 25.9896 18.3555L24.5627 18.3823C24.5761 17.9799 24.6434 17.6177 24.7915 17.2958ZM31.0375 16.7592C30.6741 16.5982 30.2164 16.5043 29.6645 16.5043C29.0991 16.5043 28.6549 16.6519 28.3183 16.9336C27.9818 17.2153 27.8068 17.564 27.8068 17.9799C27.8068 18.342 27.9145 18.6237 28.1164 18.8249C28.3183 19.0261 28.6414 19.2005 29.0587 19.3481C29.4356 19.4822 29.7049 19.6164 29.8395 19.7371C29.9741 19.8712 30.0548 20.0188 30.0548 20.22C30.0548 20.4078 29.9875 20.5821 29.8395 20.7163C29.7049 20.8638 29.5164 20.9309 29.2741 20.9309C28.6818 20.9309 28.2376 20.5017 27.928 19.6432L27.6991 19.7103L27.753 21.0516C28.2376 21.2394 28.776 21.3333 29.3683 21.3333C29.9875 21.3333 30.4587 21.1992 30.8087 20.9175C31.1587 20.6492 31.3337 20.2602 31.3337 19.7773C31.3337 19.4554 31.2529 19.1871 31.0779 18.9859C30.9029 18.7847 30.6202 18.6103 30.2164 18.4494C29.7722 18.2884 29.4625 18.1408 29.301 18.0067C29.1395 17.8726 29.0587 17.7116 29.0587 17.5104C29.0587 17.3092 29.1126 17.1482 29.2337 17.0141C29.3549 16.8799 29.5029 16.8263 29.6914 16.8263C30.2298 16.8263 30.6202 17.2153 30.8625 17.9799L31.0914 17.9128L31.0375 16.7592ZM18.0878 16.6385C17.8994 16.5446 17.6974 16.5043 17.4686 16.5043C17.2398 16.5043 17.0109 16.5982 16.7552 16.786C16.4994 16.9738 16.3109 17.2287 16.1629 17.5775L16.1763 16.5043L14.1302 16.9068V17.0946L14.3321 17.108C14.5879 17.1348 14.736 17.336 14.7629 17.6982C14.8437 18.5298 14.8437 19.4151 14.7629 20.3541C14.736 20.7163 14.5879 20.9041 14.3321 20.9443L14.1302 20.9711V21.226H16.984V20.9711L16.6206 20.9443C16.3648 20.9175 16.2167 20.7163 16.1898 20.3541C16.109 19.5761 16.0956 18.7445 16.1629 17.886C16.2436 17.7518 16.4186 17.6714 16.6879 17.6445C16.9571 17.6177 17.2667 17.6982 17.5898 17.886L18.0878 16.6385Z" fill="white"/>
</svg>
