<svg width="256" height="24" viewBox="0 0 256 24" fill="none" xmlns="http://www.w3.org/2000/svg">
<path fill-rule="evenodd" clip-rule="evenodd" d="M153.208 10.9618C119.139 11.388 85.0531 13.079 51.1325 16.1016C35.0055 17.539 16.2773 17.3593 0.636163 22.2596C-0.143194 22.5062 0.00523208 23.246 0.0221013 23.32C0.0558397 23.4715 0.197577 23.9752 0.818364 23.9999C0.885841 24.0034 1.36152 23.9329 1.54371 23.9083C6.1625 23.2742 10.7644 22.5344 15.3866 21.9355C31.3449 19.8606 47.3504 18.2929 63.3795 16.919C84.6549 15.0941 106.113 14.1218 127.445 13.3608C139.122 12.9452 151.079 13.4982 162.793 12.6386C167.095 12.614 171.396 12.6105 175.698 12.6246C193.681 12.6916 211.643 13.4032 229.595 14.379C235.368 14.6925 239.771 15.0307 245.422 15.2597C247.568 15.3478 250.972 15.4077 253.34 15.4464C253.688 15.4535 254.575 15.4605 254.943 15.464C254.98 15.471 255.017 15.471 255.058 15.471C255.199 15.471 255.267 15.4605 255.28 15.4605C256.083 15.3372 256.009 14.5445 255.989 14.4248C255.985 14.4001 255.864 13.7307 255.172 13.7061C255.007 13.699 253.823 13.6921 253.367 13.685C251.012 13.6463 247.622 13.5864 245.486 13.5018C239.845 13.2728 235.445 12.9346 229.683 12.6211C211.704 11.6453 193.714 10.9301 175.705 10.8632C173.505 10.8562 171.302 10.8526 169.102 10.8561C169.028 10.6553 168.863 10.4299 168.498 10.3312C168.158 10.2396 165.718 10.1586 164.777 10.0776C157.81 9.47872 158.016 9.5069 150.35 9.01722C138.741 8.2739 136.973 8.10472 124.898 7.79119C102.965 7.22048 81.0213 7.26634 59.0846 7.3227C48.2546 7.35441 36.6586 8.11886 25.6633 6.6921C29.2868 6.24822 32.9238 5.92412 36.5541 5.55422C48.9496 4.29304 61.3552 3.51092 73.8013 2.96136C103.656 1.64381 133.559 1.11894 163.404 2.9156C157.051 2.97901 150.701 3.12693 144.348 3.22205C118.488 3.61661 92.3776 3.32072 66.5711 5.3675C66.1089 5.40625 65.7614 5.82897 65.7952 6.3116C65.8289 6.79776 66.2371 7.16063 66.6993 7.1254C92.4721 5.07862 118.545 5.37804 144.372 4.98348C153.967 4.83904 163.559 4.57837 173.154 4.65587C176.447 4.68406 179.74 4.8109 183.033 4.85318C183.684 4.86374 185.361 4.99761 185.6 4.94125C186.13 4.81795 186.245 4.40927 186.278 4.20846C186.295 4.08869 186.349 3.39821 185.54 3.15161C180.013 1.46768 169.814 1.54518 164.443 1.21403C134.23 -0.653084 103.957 -0.131714 73.7304 1.19993C61.254 1.75302 48.818 2.53866 36.3887 3.80337C32.0466 4.24373 27.6944 4.62419 23.3691 5.20899C22.6707 5.3041 21.1019 5.44152 20.3428 5.58596C20.0256 5.64585 19.7962 5.73034 19.695 5.79023C19.3002 6.02273 19.2294 6.36094 19.2294 6.58992C19.226 6.76606 19.2969 7.38608 20.1235 7.55518C32.718 10.1304 46.4226 9.11936 59.088 9.08413C81.0112 9.02777 102.938 8.98191 124.858 9.55262C136.902 9.86615 138.663 10.0318 150.249 10.7751C151.393 10.8456 152.361 10.9089 153.208 10.9618Z" fill="#FFB52C"/>
</svg>
