<svg width="116" height="116" viewBox="0 0 116 116" fill="none" xmlns="http://www.w3.org/2000/svg">
<rect y="22.6425" width="96" height="96" rx="16" transform="rotate(-13.6423 0 22.6425)" fill="white" fill-opacity="0.2" stroke="url(#paint0_linear_11_613)"/>
<rect x="14.4918" y="31.4736" width="72" height="72" rx="16" transform="rotate(-13.6423 14.4918 31.4736)" fill="white"/>
<g clip-path="url(#clip0_11_613)">
<path d="M73.8871 54.3966C71.7947 45.7755 63.1102 40.4832 54.4891 42.5756C45.8679 44.668 40.5757 53.3525 42.6681 61.9737C44.7605 70.5948 53.445 75.887 62.0661 73.7946C70.6873 71.7022 75.9795 63.0177 73.8871 54.3966ZM60.99 49.3384L57.9436 67.4332C57.8906 67.7485 57.7145 68.0299 57.4541 68.2154C57.1936 68.4009 56.8701 68.4753 56.5548 68.4223C56.2394 68.3693 55.9581 68.1932 55.7726 67.9328C55.5871 67.6723 55.5126 67.3488 55.5656 67.0335L58.6119 48.9387C58.6381 48.7825 58.6947 48.6331 58.7786 48.4989C58.8625 48.3646 58.972 48.2483 59.1009 48.1563C59.2298 48.0644 59.3755 47.9988 59.5297 47.9632C59.684 47.9276 59.8437 47.9228 59.9998 47.9489C60.156 47.9751 60.3054 48.0317 60.4396 48.1156C60.5739 48.1995 60.6902 48.309 60.7821 48.4379C60.8741 48.5668 60.9397 48.7125 60.9753 48.8667C61.0109 49.0209 61.0161 49.1822 60.99 49.3384ZM52.5659 56.7714L50.2731 60.1279L53.849 62.0583C54.1231 62.2139 54.3253 62.4707 54.4122 62.7736C54.4991 63.0765 54.4639 63.4014 54.3141 63.6787C54.1643 63.9559 53.9118 64.1634 53.6108 64.2567C53.3098 64.35 52.9842 64.3216 52.7039 64.1776L47.9491 61.6126C47.8007 61.5324 47.6708 61.4219 47.5679 61.2883C47.4649 61.1547 47.3911 61.0009 47.3513 60.837C47.3116 60.6731 47.3066 60.5026 47.3369 60.3367C47.3672 60.1708 47.432 60.013 47.5271 59.8737L50.577 55.4144C50.7601 55.158 51.0365 54.9835 51.3468 54.9284C51.657 54.8733 51.9766 54.942 52.2368 55.1197C52.497 55.2974 52.6773 55.5701 52.7389 55.8791C52.8004 56.1882 52.7385 56.5091 52.5662 56.773M62.2176 52.6801C62.2927 52.5407 62.3947 52.4176 62.5175 52.3176C62.6403 52.2177 62.7816 52.1429 62.9334 52.0977C63.0851 52.0524 63.2443 52.0375 63.4018 52.0538C63.5593 52.0701 63.7121 52.1173 63.8513 52.1927L68.6061 54.7577C68.7545 54.8379 68.8844 54.9484 68.9873 55.082C69.0903 55.2156 69.1641 55.3693 69.2039 55.5333C69.2437 55.6972 69.2486 55.8676 69.2183 56.0336C69.188 56.1995 69.1233 56.3573 69.0282 56.4966L65.9782 60.9558C65.7951 61.2123 65.5187 61.3868 65.2084 61.4419C64.8982 61.497 64.5786 61.4283 64.3184 61.2506C64.0582 61.0728 63.8779 60.8002 63.8164 60.4912C63.7548 60.1821 63.8167 59.8612 63.989 59.5973L66.2822 56.2424L62.7062 54.3119C62.4252 54.16 62.216 53.9028 62.1247 53.5967C62.0334 53.2906 62.0658 52.9612 62.2176 52.6801Z" fill="#2264F2"/>
</g>
<defs>
<linearGradient id="paint0_linear_11_613" x1="0" y1="22.6425" x2="96" y2="118.642" gradientUnits="userSpaceOnUse">
<stop stop-color="white"/>
<stop offset="1" stop-color="white" stop-opacity="0"/>
</linearGradient>
<clipPath id="clip0_11_613">
<rect width="38.5504" height="38.5504" fill="white" transform="translate(35 44) rotate(-13.6423)"/>
</clipPath>
</defs>
</svg>
