<svg width="36" height="26" viewBox="0 0 36 26" fill="none" xmlns="http://www.w3.org/2000/svg">
<path d="M6.57593 13.6775L5.20172 12.5603L16.2129 3.60751C17.0751 2.90663 17.2057 1.63911 16.5049 0.776921C15.8035 -0.0852656 14.5364 -0.215867 13.6743 0.485017L0.742511 10.9993C0.272654 11.3812 0 11.9546 0 12.5608C0 13.167 0.272654 13.7399 0.742511 14.1223L4.03724 16.801C4.41032 17.1043 4.85935 17.2521 5.30527 17.2521C5.89012 17.2521 6.47029 16.9982 6.86782 16.5091C7.56922 15.6459 7.43811 14.3783 6.57593 13.6775Z" fill="#07B9AA"/>
<path d="M34.3043 10.9988L30.5829 7.97308C29.7207 7.27219 28.4532 7.40279 27.7523 8.26498C27.0514 9.12716 27.182 10.3947 28.0442 11.0956L29.8451 12.5598L18.8338 21.5126C17.9717 22.2135 17.8411 23.481 18.5419 24.3432C18.9395 24.8323 19.5196 25.0862 20.1045 25.0862C20.5504 25.0862 20.9995 24.9384 21.3725 24.6351L34.3043 14.1208C34.7741 13.7388 35.0473 13.1649 35.0473 12.5593C35.0473 11.9536 34.7741 11.3807 34.3043 10.9988Z" fill="#07B9AA"/>
<path d="M22.908 0.163458C21.8866 -0.27466 20.7034 0.198319 20.2653 1.21921L11.6299 21.3497C11.1918 22.3711 11.6647 23.5538 12.6856 23.9925C12.9442 24.1033 13.2133 24.1559 13.4781 24.1559C14.2586 24.1559 15.0011 23.699 15.3284 22.9362L23.9638 2.80569C24.4019 1.78481 23.9295 0.601575 22.908 0.163458Z" fill="#07B9AA"/>
</svg>
