<svg width="180" height="54" viewBox="0 0 180 54" fill="none" xmlns="http://www.w3.org/2000/svg">
<path d="M18.7679 27.8918L16.9356 26.4022L31.6172 14.4652C32.7668 13.5307 32.941 11.8406 32.0065 10.6911C31.0712 9.54148 29.3819 9.36735 28.2323 10.3019L10.99 24.3209C10.3635 24.8302 9.99998 25.5947 9.99998 26.4029C9.99998 27.2112 10.3635 27.975 10.99 28.485L15.383 32.0565C15.8804 32.461 16.4791 32.658 17.0737 32.658C17.8535 32.658 18.627 32.3194 19.1571 31.6673C20.0923 30.5163 19.9175 28.8263 18.7679 27.8918Z" fill="#07B9AA"/>
<path d="M55.739 24.3202L50.7772 20.2859C49.6276 19.3514 47.9376 19.5256 47.003 20.6751C46.0685 21.8247 46.2427 23.5148 47.3923 24.4493L49.7934 26.4015L35.1118 38.3386C33.9622 39.2731 33.788 40.9631 34.7226 42.1127C35.2526 42.7649 36.0262 43.1034 36.806 43.1034C37.4005 43.1034 37.9992 42.9064 38.4967 42.5019L55.739 28.4829C56.3655 27.9736 56.7297 27.2084 56.7297 26.4009C56.7297 25.5933 56.3655 24.8295 55.739 24.3202Z" fill="#07B9AA"/>
<path d="M40.544 9.87312C39.1821 9.28896 37.6045 9.9196 37.0203 11.2808L25.5065 38.1215C24.9223 39.4833 25.5529 41.0603 26.9141 41.6451C27.2589 41.7929 27.6176 41.863 27.9708 41.863C29.0114 41.863 30.0014 41.2538 30.4378 40.2368L41.9517 13.3961C42.5358 12.0349 41.9059 10.4573 40.544 9.87312Z" fill="#07B9AA"/>
<path d="M72.4484 17.9559H75.2397C74.9924 20.7118 72.5898 22.6552 69.1448 22.6552C65.5938 22.6552 62.8908 20.5175 62.8908 16.3835C62.8908 12.3202 65.5938 10.0942 69.1448 10.0942C72.5898 10.0942 75.0631 12.1612 75.2397 14.8112H72.4484C72.0598 13.4685 71.1411 12.8325 69.1448 12.8325C67.0248 12.8325 65.5584 13.9279 65.5584 16.3835C65.5584 18.8392 67.0248 19.9168 69.1448 19.9168C71.2118 19.9168 72.1128 19.1749 72.4484 17.9559ZM81.3767 12.5675C84.3977 12.5675 86.9063 14.1752 86.9063 17.6202C86.9063 21.1005 84.3977 22.6552 81.3767 22.6552C78.3734 22.6552 75.8647 21.0475 75.8647 17.6202C75.8647 14.2105 78.3734 12.5675 81.3767 12.5675ZM81.3767 20.2172C83.0727 20.2172 84.274 19.4045 84.274 17.6202C84.274 15.7829 83.0727 15.0232 81.3767 15.0232C79.6984 15.0232 78.497 15.7475 78.497 17.6202C78.497 19.4752 79.6984 20.2172 81.3767 20.2172ZM95.3689 12.7442H98.0542V22.6552H95.3689V21.2065H95.2452C94.6092 22.0898 93.7082 22.6552 91.9239 22.6552C87.7369 22.6552 87.6309 19.1572 87.6309 17.7085V12.7442H90.2986V17.7085C90.2986 18.4859 90.1219 20.3585 92.7013 20.3585C95.0156 20.3585 95.3689 18.8745 95.3689 17.5319V12.7442ZM104.742 12.7442C105.448 12.7442 106.031 12.9032 106.491 13.0092L106.067 15.5355C105.819 15.4649 105.13 15.3235 104.282 15.3235C102.286 15.3235 101.703 16.8782 101.703 18.2209V22.6552H99.0176V12.7442H101.703V14.2105H101.862C102.427 13.2565 103.028 12.7442 104.742 12.7442ZM111.649 16.6485C113.893 16.9842 116.437 17.3729 116.437 19.7225C116.437 22.1782 114.67 22.6552 111.631 22.6552C109.388 22.6552 107.851 22.2488 107.056 21.4538C106.367 20.7648 106.367 19.9345 106.384 19.4222V19.2278H109.14V19.3162C109.14 20.1642 109.776 20.5528 111.561 20.5528C112.638 20.5528 113.663 20.4115 113.663 19.7578C113.663 19.0159 112.709 18.8745 111.631 18.7509C111.49 18.7332 111.349 18.7155 111.207 18.6979C108.363 18.3269 106.596 17.6909 106.596 15.7122C106.596 14.3342 107.391 12.6912 111.207 12.6912C115.306 12.6912 116.172 14.5109 116.172 16.0302V16.1185H113.433V16.0302C113.433 15.2529 112.762 14.8289 111.207 14.8289C109.706 14.8289 109.388 15.3765 109.388 15.6769C109.388 16.1185 109.688 16.3659 111.419 16.6309L111.649 16.6485Z" fill="#FFB52C"/>
<path d="M76.7061 37.0961L78.9851 27.1851H81.9354L79.0381 39.5517H74.4801L72.5544 31.3898H72.3248L70.4168 39.5517H65.7704L62.8908 27.1851H65.8411L68.1201 37.0961H68.4204L70.7701 27.1851H74.1267L76.4764 37.0961H76.7061ZM91.6384 35.2234H83.7237C83.918 36.5484 84.713 37.2021 86.4444 37.2021C88.052 37.2021 88.847 36.7604 89.0944 36.1067H91.6914C91.4264 38.2444 89.695 39.5517 86.4444 39.5517C83.0524 39.5517 81.1267 37.8557 81.1267 34.5521C81.1267 31.3191 83.1054 29.5524 86.4444 29.5524C87.84 29.5524 88.9707 29.9058 89.801 30.4888V30.4711C91.709 31.7784 91.8857 33.8631 91.7444 35.2234H91.6384ZM86.4444 31.9021C84.9604 31.9021 84.1477 32.4497 83.8297 33.4567H89.059C88.847 32.7147 88.3524 31.9021 86.4444 31.9021ZM99.2037 29.6408C103.391 29.6408 103.832 33.1564 103.832 34.6051C103.832 35.9301 103.373 39.5517 99.2037 39.5517C97.3487 39.5517 96.218 39.0394 95.5467 38.1737H95.423V39.5517H92.7377V26.7964H95.423V31.1071H95.5643C96.2357 30.2238 97.3663 29.6408 99.2037 29.6408ZM98.4263 37.2551C100.988 37.2551 101.271 35.3117 101.271 34.6051C101.271 33.8277 100.988 31.9551 98.4263 31.9551C96.0943 31.9551 95.6173 33.2624 95.6173 34.6051C95.6173 36.1067 96.0943 37.2551 98.4263 37.2551ZM115.415 27.1851H119.266V39.5517H116.581V30.3474H116.316L113.966 39.5517H110.097L107.748 30.3474H107.483V39.5517H104.797V27.1851H108.755V27.2028H109.408L111.864 37.0961H112.111L114.585 27.2028H115.415V27.1851ZM128.471 31.1071H128.595V29.6408H131.28V39.5517H128.595V38.1737H128.506C127.835 39.0394 126.704 39.5517 124.832 39.5517C120.68 39.5517 120.221 35.9301 120.221 34.6051C120.221 33.1564 120.662 29.6408 124.849 29.6408C126.687 29.6408 127.8 30.2238 128.471 31.1071ZM125.627 37.2551C127.941 37.2551 128.418 36.1067 128.418 34.6051C128.418 33.2624 127.941 31.9551 125.627 31.9551C123.047 31.9551 122.782 33.8277 122.782 34.6051C122.782 35.3117 123.065 37.2551 125.627 37.2551ZM137.114 33.5451C139.358 33.8807 141.902 34.2694 141.902 36.6191C141.902 39.0747 140.135 39.5517 137.096 39.5517C134.853 39.5517 133.316 39.1454 132.521 38.3504C131.832 37.6614 131.832 36.8311 131.849 36.3187V36.1244H134.605V36.2127C134.605 37.0607 135.241 37.4494 137.026 37.4494C138.103 37.4494 139.128 37.3081 139.128 36.6544C139.128 35.9124 138.174 35.7711 137.096 35.6474C136.955 35.6297 136.814 35.6121 136.672 35.5944C133.828 35.2234 132.061 34.5874 132.061 32.6087C132.061 31.2308 132.856 29.5878 136.672 29.5878C140.771 29.5878 141.637 31.4074 141.637 32.9267V33.0151H138.898V32.9267C138.898 32.1494 138.227 31.7254 136.672 31.7254C135.171 31.7254 134.853 32.2731 134.853 32.5734C134.853 33.0151 135.153 33.2624 136.884 33.5274L137.114 33.5451ZM146.09 31.9374V35.4531V35.6651C146.09 37.0961 146.726 36.9017 149.306 36.7604V39.3751C149.306 39.3751 148.776 39.5517 146.09 39.5517C143.387 39.5517 143.387 37.3434 143.387 35.9124V31.9374H142.08V29.6761H143.387V26.8141H146.09V29.6761H149.306V31.9374H146.09ZM160.096 35.2234H152.182C152.376 36.5484 153.171 37.2021 154.902 37.2021C156.51 37.2021 157.305 36.7604 157.552 36.1067H160.149C159.884 38.2444 158.153 39.5517 154.902 39.5517C151.51 39.5517 149.585 37.8557 149.585 34.5521C149.585 31.3191 151.563 29.5524 154.902 29.5524C156.298 29.5524 157.429 29.9058 158.259 30.4888V30.4711C160.167 31.7784 160.344 33.8631 160.202 35.2234H160.096ZM154.902 31.9021C153.418 31.9021 152.606 32.4497 152.288 33.4567H157.517C157.305 32.7147 156.81 31.9021 154.902 31.9021ZM166.73 29.6408C167.437 29.6408 168.02 29.7998 168.479 29.9058L168.055 32.4321C167.808 32.3614 167.119 32.2201 166.271 32.2201C164.274 32.2201 163.691 33.7747 163.691 35.1174V39.5517H161.006V29.6408H163.691V31.1071H163.85C164.416 30.1531 165.016 29.6408 166.73 29.6408Z" fill="#032427"/>
</svg>
